<svg id="Layer_1" data-name="Layer 1" xmlns="http://www.w3.org/2000/svg" viewBox="0 0 499.99 499.84"><path fill="#eeeeee" d="M500,106.13V342.51c-.09,1.69-.26,3.38-.26,5.07q-.11,37.14-.18,74.28a11.25,11.25,0,0,1-.24,3.54c-2.57,7.69-4.83,15.53-8,23a64,64,0,0,1-18,24,131.24,131.24,0,0,1-13.13,9.06c-3.76,2.42-7.87,3.22-12.46,3.22q-198.76-.18-397.53-.14a14.58,14.58,0,0,1-5.91-1.09,65.26,65.26,0,0,1-11.15-6.07,83.73,83.73,0,0,1-12.47-10.76A75.49,75.49,0,0,1,4.92,439.73c-2.64-7.6-4.73-15.2-4.71-23.5C.32,364,0,311.74,0,259.5Q0,176.42.49,93.32C.54,85,.78,76.48,2.78,68.52A80.32,80.32,0,0,1,22,32.56,51.87,51.87,0,0,1,45.54,18a72.09,72.09,0,0,1,18.07-2.46c13.43-.39,26.88-.27,40.31-.23q159.55.4,319.11.85c5.45,0,10.89.11,16.33.22,8.1.17,16.27.07,23.36,5,4.11,2.84,8.6,5.27,12.27,8.61a66,66,0,0,1,14.9,19.79c3.55,7.23,7.23,14.47,8.07,22.6.8,7.68,1.08,15.42,1.54,23.14C499.72,99,499.83,102.57,500,106.13Zm-47.47,18.16a8.88,8.88,0,0,0-1.28.77c-4.79,4.4-9.54,8.85-14.35,13.22s-9.76,8.65-14.58,13c-5.42,5-10.73,10-16.16,15-4.82,4.39-9.78,8.63-14.6,13-5.42,4.94-10.71,10-16.13,15-6.49,5.9-13.09,11.67-19.59,17.55s-13.17,12.06-19.78,18.05c-5.45,4.94-11,9.78-16.41,14.73-7.09,6.47-14.06,13-21.16,19.49-6.56,6-13.26,11.75-19.84,17.67-8.13,7.3-16.2,14.67-24.3,22-2,1.77-3.29,1.65-5.16-.22-2.06-2.07-4.17-4.09-6.29-6.1-4.55-4.31-9.15-8.57-13.67-12.91-5.18-5-10.27-10-15.45-15s-10.57-10-15.8-15-10.07-10-15.17-14.91c-6.14-5.92-12.4-11.72-18.53-17.64s-11.89-11.73-17.89-17.53c-7.7-7.43-15.49-14.77-23.2-22.18-8.07-7.76-16.09-15.57-24.14-23.35l-26.5-25.57Q59.82,121,47.09,108.81l-.7.15v4.74q0,118.7,0,237.39c0,18.29.28,36.58.55,54.87.07,5,0,9.93,3.65,14.16,2.93,3.41,5.62,5.74,10.77,5.74q189.45-.28,378.88-.11c2.46,0,4.45-.29,6.24-2.3,3-3.39,5.8-6.62,5.82-11.62,0-12.16.57-24.32.56-36.49q-.07-124.3-.29-248.61ZM92,75.28l-.47.6q79.83,78.19,161.18,155.27,87-76.89,171.48-155l-.45-.91Z"/></svg>