<?xml version="1.0" encoding="utf-8"?>
<!-- Generator: Adobe Illustrator 23.1.1, SVG Export Plug-In . SVG Version: 6.00 Build 0)  -->
<svg version="1.1" id="Layer_1" xmlns="http://www.w3.org/2000/svg" xmlns:xlink="http://www.w3.org/1999/xlink" x="0px" y="0px"
	 viewBox="0 0 482.38 482.38" style="enable-background:new 0 0 482.38 482.38;" xml:space="preserve">
<style type="text/css">
	.st0{fill:#ffffff;}
</style>
<g>
	<path class="st0" d="M17.12,385.87c3.08,2.47,9.62,5.54,19.64,9.24c10,3.7,21.63,5.54,34.88,5.54c11.39,0,20.48-1.92,27.26-5.77
		c6.77-3.85,12.01-9.77,15.71-17.79c3.7-8.01,6.08-18.25,7.16-30.72c1.08-12.47,1.62-27.33,1.62-44.58V135h75.77v166.78
		c0,24.95-1.31,47.67-3.93,68.15c-2.62,20.49-8.32,37.96-17.09,52.44c-8.78,14.48-21.64,25.72-38.58,33.73
		c-16.94,8.01-39.58,12.01-67.91,12.01c-27.72,0-51.44-6.77-71.15-20.33L17.12,385.87z"/>
	<path class="st0" d="M234.72,342.3V14.28h139.99c15.71,0,30.1,3.23,43.2,9.7c13.09,6.47,24.33,14.94,33.73,25.41
		c9.39,10.47,16.78,22.33,22.18,35.57c5.38,13.25,8.08,26.64,8.08,40.19c0,14.48-2.54,28.34-7.62,41.58
		c-5.08,13.25-12.17,25.11-21.25,35.57c-9.09,10.47-20.1,18.79-33.03,24.95c-12.94,6.17-27.26,9.24-42.97,9.24h-66.53v105.8H234.72z
		 M310.49,170.43h61.91c8.93,0,16.63-3.85,23.1-11.55c6.47-7.7,9.7-18.94,9.7-33.73c0-7.69-1-14.32-3-19.87
		c-2.01-5.54-4.7-10.16-8.08-13.86c-3.39-3.7-7.24-6.39-11.55-8.08c-4.32-1.69-8.63-2.54-12.94-2.54h-59.14V170.43z"/>
</g>
</svg>
