<?xml version="1.0" encoding="utf-8"?>
<!-- Generator: Adobe Illustrator 23.1.1, SVG Export Plug-In . SVG Version: 6.00 Build 0)  -->
<svg version="1.1" id="Layer_1" xmlns="http://www.w3.org/2000/svg" xmlns:xlink="http://www.w3.org/1999/xlink" x="0px" y="0px"
	 viewBox="0 0 588.8 511.8" style="enable-background:new 0 0 588.8 511.8; background: #ffffff;" xml:space="preserve">
<style type="text/css">
	.st0{fill:#FFFFFF;stroke:#000000;stroke-width:3;stroke-linecap:round;stroke-linejoin:round;stroke-miterlimit:10;}
	.st1{fill:none;stroke:#000000;stroke-width:3;stroke-miterlimit:10;}
	.st2{fill:#FFFFFF;}
	.st3{font-family:'OpenSans-Bold';}
	.st4{font-size:24px;}
</style>
<title>itcss-layers2</title>
<g>
	<polygon class="st0" points="294,471.6 44,38.6 544,38.6 	"/>
	<line class="st1" x1="79.2" y1="99.6" x2="508.7" y2="99.6"/>
	<line class="st1" x1="114.8" y1="162.1" x2="472.6" y2="162.1"/>
	<line class="st1" x1="151.3" y1="224.6" x2="436.6" y2="224.6"/>
	<line class="st1" x1="187.4" y1="287.1" x2="400.5" y2="287.1"/>
	<line class="st1" x1="223.5" y1="349.6" x2="364.4" y2="349.6"/>
	<line class="st1" x1="258.8" y1="412.1" x2="328.3" y2="412.1"/>
</g>
<rect x="228.5" y="426.7" class="st2" width="131" height="31.3"/>
<rect x="199.2" y="364.9" class="st2" width="189.6" height="31.3"/>
<text transform="matrix(1 0 0 1 238.9571 451.0923)" class="st3 st4">UTILITIES</text>
<text transform="matrix(1 0 0 1 208.5644 389.6924)" class="st3 st4">COMPONENTS</text>
<text transform="matrix(1 0 0 1 254.5129 141.0924)" class="st3 st4">TOOLS</text>
<text transform="matrix(1 0 0 1 242.5255 204.4924)" class="st3 st4">GENERIC</text>
<text transform="matrix(1 0 0 1 232.3826 265.8924)" class="st3 st4">ELEMENTS</text>
<text transform="matrix(1 0 0 1 244.4412 327.2924)" class="st3 st4">OBJECTS</text>
<text transform="matrix(1 0 0 1 237.6967 81.6924)" class="st3 st4">SETTINGS</text>
</svg>
