<svg id="Layer_1" data-name="Layer 1" xmlns="http://www.w3.org/2000/svg" viewBox="0 0 500 500"><path fill="#ffffff" d="M249.9.22c71,0,141.93.21,212.89-.14C481.71,0,497,13.53,499.53,30.17a37.11,37.11,0,0,1,.45,5.56q0,214.35,0,428.68a35.6,35.6,0,0,1-33.94,35.46c-1.25.05-2.49.05-3.74.05H37.46c-17.78,0-31.22-9.54-35.89-25.66A38.42,38.42,0,0,1,.07,463.7Q0,250.07,0,36.43C0,16.15,15.27.52,35.6.27,52.76.06,69.91.22,87.07.22Zm16.73,217.89c0-8.57-.16-17.15.08-25.72.1-3.93-.9-5.5-5.2-5.46q-31.09.31-62.22,0c-4.14,0-5.31,1.26-5.3,5.33q.15,114.64,0,229.29c0,4.49,1.63,5.56,5.72,5.53,21.21-.13,42.42,0,63.63-.06,6.18,0,6.2,0,6.2-6.22,0-38.21-.11-76.43.09-114.64a136,136,0,0,1,1.95-23.68c2.91-15.93,10.12-29,27.25-33.28a65.6,65.6,0,0,1,16.62-1.63c17.77.21,28.89,8.6,32.81,25.94a138.09,138.09,0,0,1,3.1,29.12c.33,39.15.13,78.3.14,117.45,0,6.92,0,6.94,7.07,6.94,20.74,0,41.48-.11,62.22.09,4.64.05,6.09-1.26,6.07-6.07-.18-45.55.36-91.1-.37-136.63a219.58,219.58,0,0,0-5.68-45.22c-6.09-26.53-21.56-45.88-48.68-53.48-9.17-2.57-18.93-3.24-28.46-4.34-18.78-2.17-36.15,2.15-52.06,12.3C281.61,200.05,273.66,208.49,266.63,218.11ZM148.72,306.65c0-38-.05-76.09.08-114.14,0-4.23-1.16-5.62-5.53-5.58q-32.28.31-64.54,0c-4.24,0-5.56,1.1-5.56,5.47q.19,114.6,0,229.21c0,4.54,1.66,5.5,5.7,5.47,21.2-.13,42.4,0,63.61-.06,6.23,0,6.25,0,6.25-6.24Q148.73,363.72,148.72,306.65ZM111,155a43.41,43.41,0,1,0-43.36-43.15A43.15,43.15,0,0,0,111,155Z"/></svg>