<svg id="Layer_1" data-name="Layer 1" xmlns="http://www.w3.org/2000/svg" viewBox="0 0 500 500"><path fill="#eeeeee" d="M150,429c-27.54-.81-54.71-3-81.06-11.53a121.21,121.21,0,0,1-49.48-29.82c-22-22-25.51-49.67-9.5-76.42,13.81-23.09,34.53-38.3,58.63-48.7,9-3.88,13.12-9.13,15.25-18.34q11.27-48.54,23.77-96.79c7.69-29.91,24.14-53,53.1-65.91,21.7-9.7,44.35-12.23,67.62-9.21C242.08,74,255.71,77,269.43,79.38a30.72,30.72,0,0,0,7.17.37c24.27-1.63,48.17,1.33,71.59,7.22,20.64,5.18,41.14,11.09,61.32,17.84,23.7,7.94,35.09,25.76,36.83,50.35,1.62,22.87,3.53,45.71,5.09,68.58.3,4.31,1.93,6.45,6,8.24,8.6,3.79,17.52,7.49,25,13,17.87,13,22.06,31.6,12.71,51.7-7.57,16.27-20.26,28.15-34.18,38.77-28,21.38-59.61,36.17-92.27,48.82a670,670,0,0,1-159.64,40C189.48,426.67,169.67,427.43,150,429ZM98.83,237.54c11.1,4.1,21.79,8.87,32.93,12,69.46,19.71,140.25,27.67,212.32,22.63,21-1.46,41.66-5,61.3-13,11.62-4.76,22.31-10.92,29.63-21.53,1.86-2.69,3.88-6.22,3.7-9.24-1.35-22.36-3.14-44.69-5-67-2.28-27.59-11.93-39.71-38.41-47.87-14.44-4.45-28.95-8.75-43.61-12.39-38.6-9.61-77.38-12.36-116.26-1.43-21,5.9-41.9,12.23-63,17.8-11.09,2.93-22.23,3.45-30.66-7.28-9.81,9.53-16,21.29-19.54,34.13-5.11,18.4-9.1,37.1-13.7,55.64C105.54,212.16,102.28,224.26,98.83,237.54Zm-2,13.38c-6.11,14.44-12.08,28.87-18.32,43.18-2.09,4.78-1.28,8.3,3.05,11.09,1.3.83,2.56,1.73,3.89,2.52,21.06,12.47,44,20.31,67.4,26.74C197.71,346.77,243.6,352.2,290,353c33.3.55,66.4-1.82,98.6-11.23,19.16-5.6,37.06-13.72,51.86-27.67,5.26-5,7.9-10.59,6.73-18-1.26-8-2.08-16.07-3.1-24.1-.85-6.68-1.71-13.36-2.53-19.71-7.35,4.9-13.84,10.11-21.08,13.89-26.34,13.78-55.16,17.6-84.26,19.71-34.28,2.49-68.46.67-102.55-3.15-37-4.15-73.53-10.49-109.1-21.63C114.8,258,105.3,254.05,96.81,250.92ZM456,244.12l-1.81,1.52c2,16.56,3.76,33.16,6.16,49.66,1.37,9.44-.49,17.8-7.22,24.24s-14,12.93-21.95,17.84c-29.32,18.06-62.22,24.88-95.91,26.88a722.2,722.2,0,0,1-77.86.15A480.21,480.21,0,0,1,137.7,343.7c-23-7.15-45.75-15.16-65.72-29.24-10.43-7.35-11.62-12-6.37-23.68,2.23-4.93,4.63-9.78,7-14.67-22,9.64-40.89,22.64-52.51,43.92s-8.71,40.59,8.34,58.05c19,19.44,43,28.56,69.1,33.06,35.29,6.09,70.68,4.95,106,.69,63.7-7.67,125.26-23.67,184.11-49.47,27-11.85,53-25.52,75.32-45.36,8.3-7.38,15.55-15.64,20.39-25.78,6.17-12.93,4.58-24.19-6-33.17C470.86,252.6,463.11,248.71,456,244.12ZM153.61,102.91c.24.79.49,1.58.73,2.38,4.32,0,8.79.71,12.93-.15,8.91-1.84,17.69-4.32,26.44-6.84,12.9-3.72,25.72-7.69,38.58-11.55-23.7-4.24-46.71-2.83-68.45,8C160,96.65,157,100.15,153.61,102.91Z"/></svg>