<?xml version="1.0" encoding="utf-8"?>
<!-- Generator: Adobe Illustrator 23.1.1, SVG Export Plug-In . SVG Version: 6.00 Build 0)  -->
<svg version="1.1" id="Layer_1" xmlns="http://www.w3.org/2000/svg" xmlns:xlink="http://www.w3.org/1999/xlink" x="0px" y="0px"
	 viewBox="0 0 660.8 575" style="enable-background:new 0 0 660.8 575; background: #ffffff" xml:space="preserve">
<style type="text/css">
	.st0{fill:#FFFFFF;stroke:#000000;stroke-width:3;stroke-linecap:round;stroke-linejoin:round;stroke-miterlimit:10;}
	.st1{fill:none;stroke:#000000;stroke-width:3;stroke-linecap:round;stroke-linejoin:round;stroke-miterlimit:10;}
	.st2{fill:none;stroke:#000000;stroke-width:2;stroke-linecap:round;stroke-linejoin:round;stroke-miterlimit:10;}
	.st3{font-family:'OpenSans-Bold';}
	.st4{font-size:24px;}
</style>
<title>itcss-key-metrics</title>
<polygon class="st0" points="331.4,517.2 81.4,84.2 581.4,84.2 "/>
<line class="st1" x1="116.6" y1="145.2" x2="546.2" y2="145.2"/>
<line class="st2" x1="97.6" y1="52.7" x2="273.7" y2="52.7"/>
<path d="M100.6,58.2l-17.7-4.7c-0.8-0.2-0.8-1.4,0-1.6l17.7-4.7c0.5-0.1,1,0.3,1,0.8v9.5C101.6,57.9,101.1,58.3,100.6,58.2z"/>
<line class="st2" x1="56.4" y1="120.7" x2="135.5" y2="254.5"/>
<path d="M53.1,126.1l-4.9-17.7c-0.2-0.8,0.8-1.4,1.4-0.8l13.1,12.8c0.4,0.4,0.3,1-0.2,1.3l-8.2,4.8
	C53.9,126.8,53.3,126.6,53.1,126.1z"/>
<line class="st2" x1="287.2" y1="520.6" x2="218.7" y2="404.8"/>
<path d="M290.5,515.3l4.9,17.7c0.2,0.8-0.8,1.4-1.4,0.8l-13.1-12.8c-0.4-0.4-0.3-1,0.2-1.3l8.2-4.8
	C289.7,514.5,290.3,514.8,290.5,515.3z"/>
<line class="st2" x1="373.4" y1="520.8" x2="436.9" y2="410.7"/>
<path d="M379.6,521.1l-13,13c-0.6,0.6-1.6,0-1.4-0.8l4.7-17.7c0.1-0.5,0.7-0.8,1.2-0.5l8.2,4.7C379.9,520,380,520.7,379.6,521.1z"/>
<line class="st2" x1="604.6" y1="119.5" x2="534.3" y2="241.3"/>
<path d="M598.4,119.3l13-13c0.6-0.6,1.6,0,1.4,0.8l-4.7,17.7c-0.1,0.5-0.7,0.8-1.2,0.5l-8.2-4.7C598.1,120.3,598,119.7,598.4,119.3z
	"/>
<line class="st2" x1="563.7" y1="52.7" x2="391.9" y2="52.7"/>
<path d="M560.8,47.1l17.7,4.7c0.8,0.2,0.8,1.4,0,1.6l-17.7,4.7c-0.5,0.1-1-0.3-1-0.8v-9.5C559.7,47.4,560.2,47,560.8,47.1z"/>
<line class="st1" x1="152.3" y1="207.7" x2="510.1" y2="207.7"/>
<line class="st1" x1="188.8" y1="270.2" x2="474" y2="270.2"/>
<line class="st1" x1="224.9" y1="332.7" x2="437.9" y2="332.7"/>
<line class="st1" x1="261" y1="395.2" x2="401.8" y2="395.2"/>
<line class="st1" x1="296.2" y1="457.7" x2="365.8" y2="457.7"/>
<text transform="matrix(1 0 0 1 291.0078 59.4303)" class="st3 st4">REACH</text>
<text transform="matrix(0.4807 -0.8769 0.8769 0.4807 453.9978 402.1704)" class="st3 st4">EXPLICITNESS</text>
<text transform="matrix(0.5001 0.866 -0.866 0.5001 135.7295 273.5374)" class="st3 st4">SPECIFICITY</text>
</svg>
